<svg width="173" height="22" viewBox="0 0 173 22" fill="none" xmlns="http://www.w3.org/2000/svg">
<mask id="path-1-outside-1_538_7816" maskUnits="userSpaceOnUse" x="-0.539062" y="-0.115234" width="174" height="22" fill="black">
<rect fill="white" x="-0.539062" y="-0.115234" width="174" height="22"/>
<path d="M2.16863 2.50015V7.92323H10.4532V9.53862H2.16863V15.4232H10.9609V17.0386H0.460938V0.884766H11.6994V2.50015H2.16863Z"/>
<path d="M20.5382 2.50015H15.6228V5.26938H18.8767V6.72323H15.6228V15.5848H19.1075V17.0386H13.9844V6.72323H12.0228V5.26938H13.9844V2.50015H11.0536V0.884766H20.5382V2.50015Z"/>
<path d="M26.9724 4.96938C29.88 4.96938 31.4031 6.53862 31.4031 9.33092V17.0386H29.7647V9.53862C29.7647 7.09246 28.5877 6.42323 26.7647 6.42323C24.78 6.42323 23.4185 7.90015 23.4185 9.79246V17.0386H21.78V2.50015H20.1185V0.884766H23.4185V7.02323C23.9724 5.77708 25.0339 4.96938 26.9724 4.96938Z"/>
<path d="M55.8569 0.884766V2.50015H52.1646C53.7569 3.86169 54.6569 6.07708 54.6569 8.96169C54.6569 14.0617 51.8646 17.154 47.2954 17.154C42.7031 17.154 39.9108 14.0617 39.9108 8.96169C39.9108 3.86169 42.7031 0.884766 47.2954 0.884766H55.8569ZM52.8569 8.98477C52.8569 4.87708 50.7569 2.50015 47.2954 2.50015C43.8338 2.50015 41.7108 4.87708 41.7108 8.98477C41.7108 13.0463 43.8338 15.5386 47.2954 15.5386C50.7569 15.5386 52.8569 13.0463 52.8569 8.98477Z"/>
<path d="M55.4496 0.884766H69.9189V2.50015H55.4496V0.884766ZM63.1804 4.854C66.2266 4.854 68.4881 7.13862 68.4881 10.9925C68.4881 14.8694 66.2266 17.154 63.1804 17.154C60.9881 17.154 59.6727 16.3232 58.9804 14.8002V21.6771H57.3419V5.26938H58.9804V7.20785C59.6727 5.68477 60.9881 4.854 63.1804 4.854ZM62.9727 15.7002C65.2573 15.7002 66.7804 13.8078 66.7804 11.0155C66.7804 8.17708 65.2573 6.30785 62.9727 6.30785C60.5727 6.30785 58.9804 8.17708 58.9804 11.0155C58.9804 13.8078 60.5727 15.7002 62.9727 15.7002Z"/>
<path d="M68.1104 0.884766H83.3411V2.50015H68.1104V0.884766ZM76.1873 4.96938C79.3719 4.96938 81.2411 7.09246 81.2411 10.3002V11.4078H72.4258C72.5642 13.9925 73.8796 15.7232 76.1873 15.7002C78.195 15.6771 79.2104 14.7309 79.4873 13.0232L81.1258 13.254C80.7335 15.6771 79.0258 17.1309 76.1873 17.154C72.8181 17.1771 70.695 14.9848 70.695 11.0617C70.695 7.34631 72.5873 4.96938 76.1873 4.96938ZM76.1873 6.42323C74.1335 6.40015 72.7488 7.50785 72.4489 9.954H79.6258C79.5335 7.48477 78.1719 6.44631 76.1873 6.42323Z"/>
<path d="M82.2504 0.884766H93.4427V2.50015H82.2504V0.884766ZM93.3966 17.0617H91.7581V9.51554C91.7581 7.34631 90.4427 6.40015 88.6196 6.40015C86.7966 6.40015 85.4812 7.34631 85.4812 9.51554V17.0617H83.8427V9.30785C83.7735 6.49246 85.6658 4.94631 88.6196 4.94631C91.5735 4.94631 93.4427 6.49246 93.3966 9.30785V17.0617Z"/>
<path d="M115.106 0.884766V2.50015H112.291H111.174C109.251 2.50015 110.283 2.50015 107.768 2.50015C105.506 2.50015 104.168 3.33092 104.168 4.87708C104.168 6.40015 104.906 7.13862 107.86 7.92323C112.476 9.14631 113.768 10.2771 113.768 12.8617C113.768 15.5386 111.553 17.154 107.906 17.154C104.283 17.154 101.929 15.2155 101.676 12.0309L103.453 11.7309C103.614 13.9925 105.345 15.5386 108.045 15.5386C110.491 15.5386 111.968 14.5463 111.968 12.9078C111.968 11.1771 110.999 10.6925 107.86 9.86169C103.476 8.70785 102.368 7.53092 102.368 5.06169C102.368 2.38477 104.422 0.884766 107.883 0.884766H115.106Z"/>
<path d="M114.005 0.884766H129.235V2.50015H114.005V0.884766ZM121.735 4.96938C125.105 4.99246 127.343 7.18477 127.343 11.0848C127.343 14.7079 125.335 17.1309 121.735 17.154C118.366 17.1309 116.128 14.9386 116.128 11.0848C116.128 7.43862 118.135 4.99246 121.735 4.96938ZM121.735 15.7002C124.089 15.6771 125.658 14.0155 125.658 11.0848C125.658 8.26938 124.251 6.40015 121.735 6.42323C119.382 6.44631 117.812 8.13092 117.835 11.0848C117.858 13.8771 119.266 15.7232 121.735 15.7002Z"/>
<path d="M128.128 0.884766H141.005V2.50015H128.128V0.884766ZM139.228 5.26938V12.7925C139.228 15.6079 137.521 17.154 134.567 17.154C131.613 17.154 129.882 15.6079 129.905 12.7925V5.26938H131.59V12.5848C131.59 14.754 132.744 15.7002 134.567 15.7002C136.39 15.7002 137.544 14.754 137.544 12.5848V5.26938H139.228Z"/>
<path d="M140.365 0.884766H150.173V2.50015H140.365V0.884766ZM149.227 5.26938V6.72323H143.896V17.0386H142.258V5.26938H149.227Z"/>
<path d="M147.482 0.884766H162.713V2.50015H147.482V0.884766ZM155.513 6.42323C153.136 6.44631 151.752 8.03862 151.775 11.0155C151.798 14.0617 153.182 15.7002 155.513 15.7002C157.405 15.6771 158.467 14.5463 158.744 12.8386L160.382 13.0694C159.99 15.4925 158.352 17.1309 155.513 17.154C152.098 17.1771 150.067 14.8925 150.067 11.0617C150.067 7.254 152.098 4.94631 155.513 4.96938C158.352 4.99246 159.99 6.74631 160.382 9.70016L158.744 9.93092C158.398 7.78477 157.521 6.44631 155.513 6.42323Z"/>
<path d="M161.149 0.884766H172.895V2.50015H161.149V0.884766ZM167.841 4.96938C171.026 4.96938 172.895 7.09246 172.895 10.3002V11.4078H164.08C164.218 13.9925 165.534 15.7232 167.841 15.7002C169.849 15.6771 170.865 14.7309 171.141 13.0232L172.78 13.254C172.388 15.6771 170.68 17.1309 167.841 17.154C164.472 17.1771 162.349 14.9848 162.349 11.0617C162.349 7.34631 164.241 4.96938 167.841 4.96938ZM167.841 6.42323C165.788 6.40015 164.403 7.50785 164.103 9.954H171.28C171.188 7.48477 169.826 6.44631 167.841 6.42323Z"/>
</mask>
<path d="M2.16863 2.50015V7.92323H10.4532V9.53862H2.16863V15.4232H10.9609V17.0386H0.460938V0.884766H11.6994V2.50015H2.16863Z" fill="white"/>
<path d="M20.5382 2.50015H15.6228V5.26938H18.8767V6.72323H15.6228V15.5848H19.1075V17.0386H13.9844V6.72323H12.0228V5.26938H13.9844V2.50015H11.0536V0.884766H20.5382V2.50015Z" fill="white"/>
<path d="M26.9724 4.96938C29.88 4.96938 31.4031 6.53862 31.4031 9.33092V17.0386H29.7647V9.53862C29.7647 7.09246 28.5877 6.42323 26.7647 6.42323C24.78 6.42323 23.4185 7.90015 23.4185 9.79246V17.0386H21.78V2.50015H20.1185V0.884766H23.4185V7.02323C23.9724 5.77708 25.0339 4.96938 26.9724 4.96938Z" fill="white"/>
<path d="M55.8569 0.884766V2.50015H52.1646C53.7569 3.86169 54.6569 6.07708 54.6569 8.96169C54.6569 14.0617 51.8646 17.154 47.2954 17.154C42.7031 17.154 39.9108 14.0617 39.9108 8.96169C39.9108 3.86169 42.7031 0.884766 47.2954 0.884766H55.8569ZM52.8569 8.98477C52.8569 4.87708 50.7569 2.50015 47.2954 2.50015C43.8338 2.50015 41.7108 4.87708 41.7108 8.98477C41.7108 13.0463 43.8338 15.5386 47.2954 15.5386C50.7569 15.5386 52.8569 13.0463 52.8569 8.98477Z" fill="white"/>
<path d="M55.4496 0.884766H69.9189V2.50015H55.4496V0.884766ZM63.1804 4.854C66.2266 4.854 68.4881 7.13862 68.4881 10.9925C68.4881 14.8694 66.2266 17.154 63.1804 17.154C60.9881 17.154 59.6727 16.3232 58.9804 14.8002V21.6771H57.3419V5.26938H58.9804V7.20785C59.6727 5.68477 60.9881 4.854 63.1804 4.854ZM62.9727 15.7002C65.2573 15.7002 66.7804 13.8078 66.7804 11.0155C66.7804 8.17708 65.2573 6.30785 62.9727 6.30785C60.5727 6.30785 58.9804 8.17708 58.9804 11.0155C58.9804 13.8078 60.5727 15.7002 62.9727 15.7002Z" fill="white"/>
<path d="M68.1104 0.884766H83.3411V2.50015H68.1104V0.884766ZM76.1873 4.96938C79.3719 4.96938 81.2411 7.09246 81.2411 10.3002V11.4078H72.4258C72.5642 13.9925 73.8796 15.7232 76.1873 15.7002C78.195 15.6771 79.2104 14.7309 79.4873 13.0232L81.1258 13.254C80.7335 15.6771 79.0258 17.1309 76.1873 17.154C72.8181 17.1771 70.695 14.9848 70.695 11.0617C70.695 7.34631 72.5873 4.96938 76.1873 4.96938ZM76.1873 6.42323C74.1335 6.40015 72.7488 7.50785 72.4489 9.954H79.6258C79.5335 7.48477 78.1719 6.44631 76.1873 6.42323Z" fill="white"/>
<path d="M82.2504 0.884766H93.4427V2.50015H82.2504V0.884766ZM93.3966 17.0617H91.7581V9.51554C91.7581 7.34631 90.4427 6.40015 88.6196 6.40015C86.7966 6.40015 85.4812 7.34631 85.4812 9.51554V17.0617H83.8427V9.30785C83.7735 6.49246 85.6658 4.94631 88.6196 4.94631C91.5735 4.94631 93.4427 6.49246 93.3966 9.30785V17.0617Z" fill="white"/>
<path d="M115.106 0.884766V2.50015H112.291H111.174C109.251 2.50015 110.283 2.50015 107.768 2.50015C105.506 2.50015 104.168 3.33092 104.168 4.87708C104.168 6.40015 104.906 7.13862 107.86 7.92323C112.476 9.14631 113.768 10.2771 113.768 12.8617C113.768 15.5386 111.553 17.154 107.906 17.154C104.283 17.154 101.929 15.2155 101.676 12.0309L103.453 11.7309C103.614 13.9925 105.345 15.5386 108.045 15.5386C110.491 15.5386 111.968 14.5463 111.968 12.9078C111.968 11.1771 110.999 10.6925 107.86 9.86169C103.476 8.70785 102.368 7.53092 102.368 5.06169C102.368 2.38477 104.422 0.884766 107.883 0.884766H115.106Z" fill="white"/>
<path d="M114.005 0.884766H129.235V2.50015H114.005V0.884766ZM121.735 4.96938C125.105 4.99246 127.343 7.18477 127.343 11.0848C127.343 14.7079 125.335 17.1309 121.735 17.154C118.366 17.1309 116.128 14.9386 116.128 11.0848C116.128 7.43862 118.135 4.99246 121.735 4.96938ZM121.735 15.7002C124.089 15.6771 125.658 14.0155 125.658 11.0848C125.658 8.26938 124.251 6.40015 121.735 6.42323C119.382 6.44631 117.812 8.13092 117.835 11.0848C117.858 13.8771 119.266 15.7232 121.735 15.7002Z" fill="white"/>
<path d="M128.128 0.884766H141.005V2.50015H128.128V0.884766ZM139.228 5.26938V12.7925C139.228 15.6079 137.521 17.154 134.567 17.154C131.613 17.154 129.882 15.6079 129.905 12.7925V5.26938H131.59V12.5848C131.59 14.754 132.744 15.7002 134.567 15.7002C136.39 15.7002 137.544 14.754 137.544 12.5848V5.26938H139.228Z" fill="white"/>
<path d="M140.365 0.884766H150.173V2.50015H140.365V0.884766ZM149.227 5.26938V6.72323H143.896V17.0386H142.258V5.26938H149.227Z" fill="white"/>
<path d="M147.482 0.884766H162.713V2.50015H147.482V0.884766ZM155.513 6.42323C153.136 6.44631 151.752 8.03862 151.775 11.0155C151.798 14.0617 153.182 15.7002 155.513 15.7002C157.405 15.6771 158.467 14.5463 158.744 12.8386L160.382 13.0694C159.99 15.4925 158.352 17.1309 155.513 17.154C152.098 17.1771 150.067 14.8925 150.067 11.0617C150.067 7.254 152.098 4.94631 155.513 4.96938C158.352 4.99246 159.99 6.74631 160.382 9.70016L158.744 9.93092C158.398 7.78477 157.521 6.44631 155.513 6.42323Z" fill="white"/>
<path d="M161.149 0.884766H172.895V2.50015H161.149V0.884766ZM167.841 4.96938C171.026 4.96938 172.895 7.09246 172.895 10.3002V11.4078H164.08C164.218 13.9925 165.534 15.7232 167.841 15.7002C169.849 15.6771 170.865 14.7309 171.141 13.0232L172.78 13.254C172.388 15.6771 170.68 17.1309 167.841 17.154C164.472 17.1771 162.349 14.9848 162.349 11.0617C162.349 7.34631 164.241 4.96938 167.841 4.96938ZM167.841 6.42323C165.788 6.40015 164.403 7.50785 164.103 9.954H171.28C171.188 7.48477 169.826 6.44631 167.841 6.42323Z" fill="white"/>
<path d="M2.16863 2.50015V7.92323H10.4532V9.53862H2.16863V15.4232H10.9609V17.0386H0.460938V0.884766H11.6994V2.50015H2.16863Z" stroke="white" stroke-width="0.2" mask="url(#path-1-outside-1_538_7816)"/>
<path d="M20.5382 2.50015H15.6228V5.26938H18.8767V6.72323H15.6228V15.5848H19.1075V17.0386H13.9844V6.72323H12.0228V5.26938H13.9844V2.50015H11.0536V0.884766H20.5382V2.50015Z" stroke="white" stroke-width="0.2" mask="url(#path-1-outside-1_538_7816)"/>
<path d="M26.9724 4.96938C29.88 4.96938 31.4031 6.53862 31.4031 9.33092V17.0386H29.7647V9.53862C29.7647 7.09246 28.5877 6.42323 26.7647 6.42323C24.78 6.42323 23.4185 7.90015 23.4185 9.79246V17.0386H21.78V2.50015H20.1185V0.884766H23.4185V7.02323C23.9724 5.77708 25.0339 4.96938 26.9724 4.96938Z" stroke="white" stroke-width="0.2" mask="url(#path-1-outside-1_538_7816)"/>
<path d="M55.8569 0.884766V2.50015H52.1646C53.7569 3.86169 54.6569 6.07708 54.6569 8.96169C54.6569 14.0617 51.8646 17.154 47.2954 17.154C42.7031 17.154 39.9108 14.0617 39.9108 8.96169C39.9108 3.86169 42.7031 0.884766 47.2954 0.884766H55.8569ZM52.8569 8.98477C52.8569 4.87708 50.7569 2.50015 47.2954 2.50015C43.8338 2.50015 41.7108 4.87708 41.7108 8.98477C41.7108 13.0463 43.8338 15.5386 47.2954 15.5386C50.7569 15.5386 52.8569 13.0463 52.8569 8.98477Z" stroke="white" stroke-width="0.2" mask="url(#path-1-outside-1_538_7816)"/>
<path d="M55.4496 0.884766H69.9189V2.50015H55.4496V0.884766ZM63.1804 4.854C66.2266 4.854 68.4881 7.13862 68.4881 10.9925C68.4881 14.8694 66.2266 17.154 63.1804 17.154C60.9881 17.154 59.6727 16.3232 58.9804 14.8002V21.6771H57.3419V5.26938H58.9804V7.20785C59.6727 5.68477 60.9881 4.854 63.1804 4.854ZM62.9727 15.7002C65.2573 15.7002 66.7804 13.8078 66.7804 11.0155C66.7804 8.17708 65.2573 6.30785 62.9727 6.30785C60.5727 6.30785 58.9804 8.17708 58.9804 11.0155C58.9804 13.8078 60.5727 15.7002 62.9727 15.7002Z" stroke="white" stroke-width="0.2" mask="url(#path-1-outside-1_538_7816)"/>
<path d="M68.1104 0.884766H83.3411V2.50015H68.1104V0.884766ZM76.1873 4.96938C79.3719 4.96938 81.2411 7.09246 81.2411 10.3002V11.4078H72.4258C72.5642 13.9925 73.8796 15.7232 76.1873 15.7002C78.195 15.6771 79.2104 14.7309 79.4873 13.0232L81.1258 13.254C80.7335 15.6771 79.0258 17.1309 76.1873 17.154C72.8181 17.1771 70.695 14.9848 70.695 11.0617C70.695 7.34631 72.5873 4.96938 76.1873 4.96938ZM76.1873 6.42323C74.1335 6.40015 72.7488 7.50785 72.4489 9.954H79.6258C79.5335 7.48477 78.1719 6.44631 76.1873 6.42323Z" stroke="white" stroke-width="0.2" mask="url(#path-1-outside-1_538_7816)"/>
<path d="M82.2504 0.884766H93.4427V2.50015H82.2504V0.884766ZM93.3966 17.0617H91.7581V9.51554C91.7581 7.34631 90.4427 6.40015 88.6196 6.40015C86.7966 6.40015 85.4812 7.34631 85.4812 9.51554V17.0617H83.8427V9.30785C83.7735 6.49246 85.6658 4.94631 88.6196 4.94631C91.5735 4.94631 93.4427 6.49246 93.3966 9.30785V17.0617Z" stroke="white" stroke-width="0.2" mask="url(#path-1-outside-1_538_7816)"/>
<path d="M115.106 0.884766V2.50015H112.291H111.174C109.251 2.50015 110.283 2.50015 107.768 2.50015C105.506 2.50015 104.168 3.33092 104.168 4.87708C104.168 6.40015 104.906 7.13862 107.86 7.92323C112.476 9.14631 113.768 10.2771 113.768 12.8617C113.768 15.5386 111.553 17.154 107.906 17.154C104.283 17.154 101.929 15.2155 101.676 12.0309L103.453 11.7309C103.614 13.9925 105.345 15.5386 108.045 15.5386C110.491 15.5386 111.968 14.5463 111.968 12.9078C111.968 11.1771 110.999 10.6925 107.86 9.86169C103.476 8.70785 102.368 7.53092 102.368 5.06169C102.368 2.38477 104.422 0.884766 107.883 0.884766H115.106Z" stroke="white" stroke-width="0.2" mask="url(#path-1-outside-1_538_7816)"/>
<path d="M114.005 0.884766H129.235V2.50015H114.005V0.884766ZM121.735 4.96938C125.105 4.99246 127.343 7.18477 127.343 11.0848C127.343 14.7079 125.335 17.1309 121.735 17.154C118.366 17.1309 116.128 14.9386 116.128 11.0848C116.128 7.43862 118.135 4.99246 121.735 4.96938ZM121.735 15.7002C124.089 15.6771 125.658 14.0155 125.658 11.0848C125.658 8.26938 124.251 6.40015 121.735 6.42323C119.382 6.44631 117.812 8.13092 117.835 11.0848C117.858 13.8771 119.266 15.7232 121.735 15.7002Z" stroke="white" stroke-width="0.2" mask="url(#path-1-outside-1_538_7816)"/>
<path d="M128.128 0.884766H141.005V2.50015H128.128V0.884766ZM139.228 5.26938V12.7925C139.228 15.6079 137.521 17.154 134.567 17.154C131.613 17.154 129.882 15.6079 129.905 12.7925V5.26938H131.59V12.5848C131.59 14.754 132.744 15.7002 134.567 15.7002C136.39 15.7002 137.544 14.754 137.544 12.5848V5.26938H139.228Z" stroke="white" stroke-width="0.2" mask="url(#path-1-outside-1_538_7816)"/>
<path d="M140.365 0.884766H150.173V2.50015H140.365V0.884766ZM149.227 5.26938V6.72323H143.896V17.0386H142.258V5.26938H149.227Z" stroke="white" stroke-width="0.2" mask="url(#path-1-outside-1_538_7816)"/>
<path d="M147.482 0.884766H162.713V2.50015H147.482V0.884766ZM155.513 6.42323C153.136 6.44631 151.752 8.03862 151.775 11.0155C151.798 14.0617 153.182 15.7002 155.513 15.7002C157.405 15.6771 158.467 14.5463 158.744 12.8386L160.382 13.0694C159.99 15.4925 158.352 17.1309 155.513 17.154C152.098 17.1771 150.067 14.8925 150.067 11.0617C150.067 7.254 152.098 4.94631 155.513 4.96938C158.352 4.99246 159.99 6.74631 160.382 9.70016L158.744 9.93092C158.398 7.78477 157.521 6.44631 155.513 6.42323Z" stroke="white" stroke-width="0.2" mask="url(#path-1-outside-1_538_7816)"/>
<path d="M161.149 0.884766H172.895V2.50015H161.149V0.884766ZM167.841 4.96938C171.026 4.96938 172.895 7.09246 172.895 10.3002V11.4078H164.08C164.218 13.9925 165.534 15.7232 167.841 15.7002C169.849 15.6771 170.865 14.7309 171.141 13.0232L172.78 13.254C172.388 15.6771 170.68 17.1309 167.841 17.154C164.472 17.1771 162.349 14.9848 162.349 11.0617C162.349 7.34631 164.241 4.96938 167.841 4.96938ZM167.841 6.42323C165.788 6.40015 164.403 7.50785 164.103 9.954H171.28C171.188 7.48477 169.826 6.44631 167.841 6.42323Z" stroke="white" stroke-width="0.2" mask="url(#path-1-outside-1_538_7816)"/>
</svg>
